HIERARCHY
ROOT Elbow
{
	OFFSET	0.00	0.00	0.00
	CHANNELS 6 Xposition Yposition Zposition Zrotation Xrotation Yrotation
	JOINT L_Wrist
	{
		OFFSET	 0.208349	 0.000000	 0.000000
		CHANNELS 3 Zrotation Xrotation Yrotation
		JOINT L_index_Proximal
		{
			OFFSET	 0.093499	 0.010637	-0.002084
			CHANNELS 3 Zrotation Xrotation Yrotation
			JOINT L_index_b
			{
				OFFSET	 0.033152	 0.000000	 0.000000
				CHANNELS 3 Zrotation Xrotation Yrotation
				JOINT L_index_c
				{
					OFFSET	 0.018651	 0.000000	 0.000000
					CHANNELS 3 Zrotation Xrotation Yrotation
					End Site
					{
						OFFSET	 0.018651	 0.000000	 0.000000
					}
				}
			}
		}
		JOINT L_middle_Proximal
		{
			OFFSET	 0.090632	-0.006115	-0.003750
			CHANNELS 3 Zrotation Xrotation Yrotation
			JOINT L_middle_b
			{
				OFFSET	 0.037195	 0.000000	 0.000000
				CHANNELS 3 Zrotation Xrotation Yrotation
				JOINT L_middle_c
				{
					OFFSET	 0.021943	 0.000000	 0.000000
					CHANNELS 3 Zrotation Xrotation Yrotation
					End Site
					{
						OFFSET	 0.021943	 0.000000	 0.000000
					}
				}
			}
		}
		JOINT L_pinky_Proximal
		{
			OFFSET	 0.074015	-0.035449	-0.000417
			CHANNELS 3 Zrotation Xrotation Yrotation
			JOINT L_pinky_b
			{
				OFFSET	 0.027285	 0.000000	 0.000000
				CHANNELS 3 Zrotation Xrotation Yrotation
				JOINT L_pinky_c
				{
					OFFSET	 0.015093	 0.000000	 0.000000
					CHANNELS 3 Zrotation Xrotation Yrotation
					End Site
					{
						OFFSET	 0.015093	 0.000000	 0.000000
					}
				}
			}
		}
		JOINT L_ring_Proximal
		{
			OFFSET	 0.082801	-0.021859	-0.003750
			CHANNELS 3 Zrotation Xrotation Yrotation
			JOINT L_ring_b
			{
				OFFSET	 0.034478	 0.000000	 0.000000
				CHANNELS 3 Zrotation Xrotation Yrotation
				JOINT L_ring_c
				{
					OFFSET	 0.021377	 0.000000	 0.000000
					CHANNELS 3 Zrotation Xrotation Yrotation
					End Site
					{
						OFFSET	 0.021377	 0.000000	 0.000000
					}
				}
			}
		}
		JOINT L_thumb_Proximal
		{
			OFFSET	 0.030306	 0.018528	 0.004584
			CHANNELS 3 Zrotation Xrotation Yrotation
			JOINT L_thumb_a
			{
				OFFSET	 0.038520	 0.000000	 0.000000
				CHANNELS 3 Zrotation Xrotation Yrotation
				JOINT L_thumb_b
				{
					OFFSET	 0.026310	 0.000000	 0.000000
					CHANNELS 3 Zrotation Xrotation Yrotation
					End Site
					{
						OFFSET	 0.026310	 0.000000	 0.000000
					}
				}
			}
		}
	}
}
MOTION
Frames:    19
Frame Time: 0.01666667
 0.507019	-0.245947	 0.724048	 83.592830	 34.168680	 15.076490	 16.215680	 0.678701	 3.852196	-7.067015	 5.584889	-70.800210	-0.817088	 0.599649	-72.548330	-0.272557	 0.089531	-36.369350	-14.500650	-4.296547	-73.272520	 0.616984	-0.557793	-84.232000	-2.958226	 1.030727	-38.412290	-33.630370	-18.710120	-12.467630	-1.870534	 0.430601	-25.925210	-3.026309	 0.263147	-9.937036	-28.538070	-8.543519	-24.804750	-0.123778	 0.030070	-27.309510	-3.495186	 0.045048	-1.476589	 39.541950	 61.379590	-20.936940	-4.360726	 0.690034	-17.975510	-4.577851	 1.573869	-37.929440
 0.507091	-0.245993	 0.724086	 83.613250	 34.238780	 15.083270	 16.246510	 0.673912	 3.824965	-7.021353	 5.537570	-70.704410	-0.768635	 0.563601	-72.500670	-0.246979	 0.081115	-36.364280	-14.478890	-4.314617	-73.283400	 0.621217	-0.562116	-84.281810	-2.944907	 1.025709	-38.399380	-33.691140	-18.698950	-12.496150	-1.870925	 0.431029	-25.944980	-2.998742	 0.261845	-9.978294	-28.546460	-8.542734	-24.785980	-0.089721	 0.021802	-27.313590	-3.477809	 0.045802	-1.508824	 39.696870	 61.348890	-21.093190	-4.318925	 0.680004	-17.886950	-4.362418	 1.483593	-37.550140
 0.507121	-0.245978	 0.724112	 83.608590	 34.296290	 15.085820	 16.259550	 0.675369	 3.833243	-7.009282	 5.523576	-70.663730	-0.745729	 0.546982	-72.517560	-0.278243	 0.091397	-36.367710	-14.473160	-4.318766	-73.294560	 0.634929	-0.574363	-84.265460	-2.934015	 1.021982	-38.401810	-33.698800	-18.696300	-12.522420	-1.859224	 0.428496	-25.954540	-2.984894	 0.260568	-9.975826	-28.549130	-8.541938	-24.785890	-0.103562	 0.025155	-27.309970	-3.497051	 0.046232	-1.514238	 39.618410	 61.365920	-21.000290	-4.323517	 0.680705	-17.886710	-4.378146	 1.486838	-37.500510
 0.507225	-0.245902	 0.724016	 83.563800	 34.477520	 15.104010	 16.301200	 0.679483	 3.856607	-6.975780	 5.490022	-70.604090	-0.722402	 0.530204	-72.552610	-0.298067	 0.098157	-36.454150	-14.434050	-4.351496	-73.311140	 0.638699	-0.576866	-84.175960	-2.882075	 1.004365	-38.419020	-33.742360	-18.678860	-12.714640	-1.812359	 0.418955	-26.030440	-2.980547	 0.264376	-10.135500	-28.436410	-8.585906	-24.674360	-0.094404	 0.022887	-27.254680	-3.513524	 0.045717	-1.490623	 39.549340	 61.396740	-20.765560	-4.367188	 0.687223	-17.877040	-4.439585	 1.500847	-37.341340
 0.507350	-0.245839	 0.723929	 83.542870	 34.568920	 15.111640	 16.319570	 0.681891	 3.870312	-7.017588	 5.522891	-70.586540	-0.780756	 0.573302	-72.578740	-0.342016	 0.112934	-36.546170	-14.455760	-4.331354	-73.328220	 0.625650	-0.564875	-84.155620	-2.850575	 0.994379	-38.454720	-33.758020	-18.672370	-12.786680	-1.817858	 0.420960	-26.074120	-2.950682	 0.260832	-10.101420	-28.352710	-8.618459	-24.590580	-0.096833	 0.023412	-27.184330	-3.503920	 0.044119	-1.442212	 39.333390	 61.447010	-20.468700	-4.407674	 0.694220	-17.892930	-4.566291	 1.545887	-37.390330
 0.507508	-0.245723	 0.723757	 83.506730	 34.645240	 15.118460	 16.334860	 0.692882	 3.932804	-7.063559	 5.564764	-70.625540	-0.805226	 0.592378	-72.680970	-0.312778	 0.103308	-36.556050	-14.533830	-4.264400	-73.316500	 0.551073	-0.497275	-84.124370	-2.847950	 0.994581	-38.494810	-33.752730	-18.673120	-12.788560	-1.848349	 0.428898	-26.125490	-2.961293	 0.261657	-10.096930	-28.290160	-8.641620	-24.540000	-0.107176	 0.025940	-27.209310	-3.489201	 0.044167	-1.450136	 39.111190	 61.503200	-20.112210	-4.511655	 0.713439	-17.963180	-5.069394	 1.745086	-37.970500
 0.507509	-0.245677	 0.723712	 83.480920	 34.654980	 15.124120	 16.329260	 0.700409	 3.975592	-7.076159	 5.579816	-70.672420	-0.817098	 0.601422	-72.709170	-0.308751	 0.101942	-36.545290	-14.555240	-4.249074	-73.273590	 0.540637	-0.487767	-84.113870	-2.853453	 0.996012	-38.476970	-33.707900	-18.682620	-12.747010	-1.856210	 0.430085	-26.088560	-2.965634	 0.261465	-10.074630	-28.282050	-8.640759	-24.576610	-0.106507	 0.025808	-27.245080	-3.482184	 0.044700	-1.470603	 39.099240	 61.508050	-20.074840	-4.512990	 0.716127	-18.024330	-5.164447	 1.792382	-38.258650
 0.507366	-0.245635	 0.723660	 83.408970	 34.674880	 15.150200	 16.315930	 0.712736	 4.045671	-7.085334	 5.591982	-70.718480	-0.839514	 0.618440	-72.754760	-0.294347	 0.097100	-36.516850	-14.602560	-4.211538	-73.227410	 0.482487	-0.434314	-83.985130	-2.869504	 1.001404	-38.469600	-33.588870	-18.706540	-12.657620	-1.857522	 0.429810	-26.054860	-2.979367	 0.262751	-10.077300	-28.288030	-8.634748	-24.623950	-0.126292	 0.030680	-27.308430	-3.491006	 0.045715	-1.500065	 39.096300	 61.521800	-19.941410	-4.527458	 0.719026	-18.039150	-5.295394	 1.857547	-38.638030
 0.507172	-0.245653	 0.723596	 83.392440	 34.651750	 15.156860	 16.317960	 0.715109	 4.059239	-7.104445	 5.606153	-70.701640	-0.821865	 0.605150	-72.728860	-0.305295	 0.100680	-36.502810	-14.632520	-4.187646	-73.199870	 0.495181	-0.445156	-83.910630	-2.866515	 1.000181	-38.463010	-33.510940	-18.725050	-12.542670	-1.824709	 0.419100	-25.868560	-2.961000	 0.258375	-9.971590	-28.292760	-8.636869	-24.584340	-0.127509	 0.030892	-27.236070	-3.500994	 0.044729	-1.463290	 38.999930	 61.544780	-19.796740	-4.580842	 0.727706	-18.043870	-5.383474	 1.892454	-38.713060
 0.506853	-0.245611	 0.723519	 83.361630	 34.586540	 15.155740	 16.335040	 0.720513	 4.089938	-7.166129	 5.656550	-70.694360	-0.809328	 0.595524	-72.694110	-0.354967	 0.116810	-36.428160	-14.668520	-4.164533	-73.095450	 0.517114	-0.464624	-83.879430	-2.905399	 1.012472	-38.418160	-33.472410	-18.737810	-12.416330	-1.868332	 0.427404	-25.768990	-2.994798	 0.259560	-9.904546	-28.336240	-8.618422	-24.645420	-0.148017	 0.035849	-27.226420	-3.537960	 0.045997	-1.489343	 38.978060	 61.543290	-19.830700	-4.593688	 0.729979	-18.049630	-5.426190	 1.904529	-38.657300
 0.506710	-0.245603	 0.723465	 83.358200	 34.548600	 15.151700	 16.335480	 0.722608	 4.101837	-7.191376	 5.677233	-70.692090	-0.836288	 0.615443	-72.699100	-0.378661	 0.124543	-36.413270	-14.676440	-4.163031	-73.026570	 0.502845	-0.451885	-83.890270	-2.914911	 1.014120	-38.359600	-33.429430	-18.746310	-12.383370	-1.881282	 0.429779	-25.734780	-2.994683	 0.258921	-9.880862	-28.349140	-8.612761	-24.665550	-0.157575	 0.038154	-27.223220	-3.537961	 0.046390	-1.501794	 38.856320	 61.561230	-19.756770	-4.629479	 0.736880	-18.078760	-5.500040	 1.935067	-38.742280
 0.506376	-0.245689	 0.723338	 83.359800	 34.454570	 15.140510	 16.313940	 0.728406	 4.134819	-7.197972	 5.684374	-70.708770	-0.859869	 0.633219	-72.736900	-0.388723	 0.127798	-36.396790	-14.727790	-4.126670	-72.923950	 0.434065	-0.390394	-83.936020	-2.967321	 1.031063	-38.314990	-33.289370	-18.774530	-12.262420	-1.897962	 0.431111	-25.592700	-3.009575	 0.257438	-9.775954	-28.380930	-8.596917	-24.735740	-0.173941	 0.042114	-27.220960	-3.556677	 0.046896	-1.510393	 38.725490	 61.573380	-19.748300	-4.603705	 0.738351	-18.214320	-5.497145	 1.956010	-39.148770
 0.506277	-0.245738	 0.723288	 83.350710	 34.429950	 15.141940	 16.307520	 0.728704	 4.136491	-7.184894	 5.671410	-70.687710	-0.857040	 0.631308	-72.751730	-0.395493	 0.129983	-36.387330	-14.737220	-4.118774	-72.921040	 0.408088	-0.366946	-83.922930	-2.992055	 1.039383	-38.305600	-33.275440	-18.775250	-12.291350	-1.933214	 0.440113	-25.648550	-3.031306	 0.261066	-9.842376	-28.402320	-8.591155	-24.728740	-0.179166	 0.043355	-27.207030	-3.550286	 0.046673	-1.505643	 38.735670	 61.567570	-19.797970	-4.599415	 0.741589	-18.308890	-5.575578	 1.987081	-39.206110
 0.506119	-0.245939	 0.723151	 83.311610	 34.444720	 15.168900	 16.289340	 0.724667	 4.113523	-7.158165	 5.641749	-70.612750	-0.828297	 0.610165	-72.753490	-0.379679	 0.124621	-36.341420	-14.721510	-4.136128	-72.872540	 0.411432	-0.369963	-83.925350	-3.031388	 1.051676	-38.259060	-33.285750	-18.769310	-12.376540	-1.973203	 0.450677	-25.728980	-3.027852	 0.261915	-9.885571	-28.460120	-8.570144	-24.769460	-0.181718	 0.043953	-27.195550	-3.527905	 0.047780	-1.551476	 38.642670	 61.579090	-19.763000	-4.621722	 0.748974	-18.400550	-5.658150	 2.012568	-39.134740
 0.506217	-0.245961	 0.723204	 83.292290	 34.449690	 15.184200	 16.289320	 0.724666	 4.113520	-7.158144	 5.641749	-70.612750	-0.828299	 0.610158	-72.753490	-0.379682	 0.124618	-36.341420	-14.721490	-4.136130	-72.872540	 0.411431	-0.369961	-83.925330	-3.031379	 1.051673	-38.259080	-33.285750	-18.769300	-12.376540	-1.973183	 0.450673	-25.728980	-3.027861	 0.261911	-9.885551	-28.460100	-8.570144	-24.769460	-0.181713	 0.043958	-27.195540	-3.527903	 0.047788	-1.551482	 38.642690	 61.579080	-19.763010	-4.621731	 0.748965	-18.400550	-5.658147	 2.012571	-39.134730
 0.505956	-0.246282	 0.722901	 83.299870	 34.339860	 15.174260	 16.194210	 0.707726	 4.017202	-7.170722	 5.638315	-70.474430	-0.776652	 0.572763	-72.815360	-0.401284	 0.131565	-36.304470	-14.629240	-4.220503	-72.809370	 0.554950	-0.499928	-84.027630	-3.063871	 1.061059	-38.195950	-33.288030	-18.772630	-12.304040	-1.922715	 0.437250	-25.621280	-3.019807	 0.259091	-9.805672	-28.556000	-8.540015	-24.784440	-0.120782	 0.029166	-27.154140	-3.516764	 0.049543	-1.613706	 38.848570	 61.533580	-20.040110	-4.515974	 0.725155	-18.235890	-5.186190	 1.817306	-38.600680
 0.505883	-0.246349	 0.722849	 83.302370	 34.307380	 15.170630	 16.166340	 0.705646	 4.005374	-7.169612	 5.633139	-70.431950	-0.768431	 0.567001	-72.843880	-0.393512	 0.129079	-36.320640	-14.618490	-4.229666	-72.810700	 0.554288	-0.499444	-84.041750	-3.050377	 1.056766	-38.208900	-33.287180	-18.772240	-12.314280	-1.906120	 0.434026	-25.653150	-3.003492	 0.258217	-9.825398	-28.546360	-8.542845	-24.785120	-0.115260	 0.027853	-27.165390	-3.516219	 0.049383	-1.608896	 38.968870	 61.508270	-20.186700	-4.503230	 0.721517	-18.196290	-5.153621	 1.805304	-38.589570
 0.505745	-0.246496	 0.722840	 83.325030	 34.213650	 15.156910	 16.094340	 0.706233	 4.008703	-7.143775	 5.607912	-70.392750	-0.804858	 0.593701	-72.828330	-0.395410	 0.129504	-36.269580	-14.538370	-4.292285	-72.895540	 0.576958	-0.519695	-84.022230	-2.985044	 1.034065	-38.206500	-33.246490	-18.782880	-12.230190	-1.896405	 0.431175	-25.616370	-2.968580	 0.254831	-9.810744	-28.520060	-8.540583	-24.895620	-0.149682	 0.036357	-27.304530	-3.506027	 0.051073	-1.668552	 39.013980	 61.494550	-20.283090	-4.494210	 0.714832	-18.066560	-5.124043	 1.784778	-38.387310
 0.505756	-0.246525	 0.722925	 83.350310	 34.138850	 15.130010	 16.067360	 0.705934	 4.007012	-7.177190	 5.634751	-70.385600	-0.880019	 0.649032	-72.818180	-0.459679	 0.150598	-36.279040	-14.522070	-4.300653	-72.971140	 0.573554	-0.517108	-84.074710	-2.942235	 1.019546	-38.217790	-33.221780	-18.790830	-12.148700	-1.907023	 0.432964	-25.580530	-2.931549	 0.249768	-9.737768	-28.497650	-8.540786	-24.966840	-0.116979	 0.028480	-27.370630	-3.482154	 0.049992	-1.644327	 38.988320	 61.492760	-20.323200	-4.498182	 0.714979	-18.054230	-5.111735	 1.785703	-38.491170
